<?xml version="1.0" encoding="utf-8"?>
<!-- Generator: Adobe Illustrator 19.0.1, SVG Export Plug-In . SVG Version: 6.00 Build 0)  -->
<svg version="1.2" baseProfile="tiny" id="Слой_1"
	 xmlns="http://www.w3.org/2000/svg" xmlns:xlink="http://www.w3.org/1999/xlink" x="0px" y="0px" viewBox="0 0 612 365.3"
	 xml:space="preserve">
<g>
	<g>
		<path fill="#959696" d="M63,194.9c-6.4-8-12.6-16.1-18.7-24.4c-11.9-16.5-23.7-33.1-33.8-50.8c-2.1-3.7-4.2-7.4-5.3-11.5
			c-0.1-0.4-0.4-0.9-0.1-1.2c0.4-0.4,0.9,0,1.3,0.2c4.5,2.2,8.5,5.2,12.6,8.1c12.9,9.4,26.2,18.3,39.7,26.9
			c7.5,4.8,15.9,7.3,24.7,8.7c6.4,1,12.7,1.3,19.1,0.9c7.3-0.5,14.4-2.6,21.3-5.1c12.1-4.4,23.2-10.7,34.4-16.9
			c15.3-8.6,30.6-17,47-23.4c15.7-6.2,31.7-11.5,48.1-15.5c1.5-0.4,3-0.5,4.4-1.1c3.9-0.7,7.7-1.4,11.6-2.1c2.2-0.4,4.3-0.6,6.7-0.9
			c-0.6,0.9-1.5,0.8-2,1.3c-0.4,0.1-0.8,0.2-1.2,0.4c-6.2,2.6-12.7,4.8-19,7.1c-7.1,2.6-14.3,5.1-21.2,8.3c-12.9,6-24,14.3-33.3,25
			c-5.7,6.5-10.1,13.8-13.6,21.7c-0.4,0.7-0.8,1.3-1.1,2c-3.4,7.9-6.2,15.9-8,24.3c-1.9,8.5-3.1,17.2-3.1,25.9
			c-0.1,7.4,0.8,14.8,2.3,22.1c3.3,16.1,9.4,31.2,18.3,45.1c6.9,10.8,14.9,20.9,22.9,31c3.4,4.2,6.8,8.4,10.7,12.3
			c1.1,1.8,2.7,3.2,4.1,4.7c6.7,7.2,13.5,14.2,20.3,21.2c6.3,6.4,12.7,12.7,19.1,19c0.5,0.5,1,0.8,1.2,1.5c0,0-0.1,0.1-0.1,0.1
			c-3.3-1.6-6.3-3.7-9.5-5.7c-19.8-12.4-39.6-24.8-59-37.8c-2-1.3-3.9-2.8-6-3.8c-3.1-2.6-6.5-4.8-9.8-7.1
			c-15.5-11.1-30.8-22.3-45.7-34.1c-11.7-9.3-23.1-19-34.1-29.2c-9.2-8.6-18.2-17.4-26.9-26.5C75,208.9,69,201.9,63,194.9z"/>
		<path fill="#908F8F" d="M341.4,360.1c-0.1,0-0.2,0-0.3,0c0,0,0-0.1,0-0.1c0.1,0,0.2,0,0.3,0C341.4,360,341.4,360,341.4,360.1z"/>
		<path fill="#959696" d="M272.5,359.5c0,0.1,0.1,0.1,0.1,0.2c-0.1,0-0.1-0.1-0.2-0.1C272.4,359.6,272.5,359.6,272.5,359.5z"/>
		<path fill="#8D8D8D" d="M479.9,85.2c0.4-0.9,0.8-1.8,1.1-2.7c2.1-5.7,5.6-10.5,10-14.4c5.9-5.2,12.8-8.7,20.6-10
			c0.6-0.1,1.2-0.2,1.8-0.3c5.5-0.6,11-0.5,16.3,1c15.9,4.7,26,15,29.6,31.3c0.8,3.6,0.6,7.3,0.5,11c-0.1,0.5-0.3,1-0.3,1.6
			c-1.5,10.3-6.6,18.6-14.7,25.1c-3.2,2.6-6.8,4.4-10.5,6.1c-0.7,0.2-1.4,0.4-2,0.6c-6.2,2.1-12.6,2.6-19.1,1.7
			c-10.1-1.5-18.6-6-25.3-13.7c-6-6.9-9.2-15-9.6-24.1C478,93.8,478.8,89.5,479.9,85.2z"/>
		<path fill="#8D8D8D" d="M607.8,106.2c-0.7-0.6-1.5,0.2-2.2,0.6c-3,1.6-5.8,3.6-8.6,5.6c-3.1,2.1-6,4.6-9.4,6.3
			c-2.1,2-4.5,3.5-6.8,5.1c-8.6,5.8-17.2,11.6-25.8,17.3c-1.9,1.3-3.9,2.5-6.1,3.3c-4.6,2.7-9.7,3.9-14.8,5.1
			c-7.5,1.8-15.1,2.2-22.7,1.9c-1.3,0-2.6-0.4-3.8-0.5c0,0,0,0,0,0c-10-1.5-19.4-4.8-28.6-9c-11.7-5.3-22.8-11.9-34-18.1
			c-13.5-7.4-27.3-14.2-41.8-19.5c-11.5-4.2-23-8.1-34.8-11.2c-6.4-1.7-12.9-3.1-19.4-4.5c-3.8-0.8-7.6-1.2-11.5-1.7
			c0,0.1-0.1,0.3-0.1,0.4c2.9,1.2,5.8,2.4,8.7,3.5c10,3.8,20.2,7,30.1,11.1c10.9,4.5,20.7,10.6,29.5,18.5c6.4,5.7,12,12.1,16.4,19.4
			c0.2,0.4,0.4,0.9,0.6,1.3c8.1,13.6,13.2,28.3,15.8,43.9c1.4,8.1,1.7,16.3,1.3,24.5c-0.1,2.4-0.2,4.9-0.9,7.2
			c-0.4,5.2-1.6,10.4-2.9,15.4c-1.7,6.6-4,13-6.6,19.2c-2,4.8-4.6,9.4-7.2,14c-5.8,10.2-12.9,19.3-20,28.6c-0.1,0.1-0.2,0.2-0.4,0.3
			c-0.1,0.4-0.5,0.7-0.9,0.8c-1,2.6-3,4.4-4.7,6.5c-6.8,8.5-14.2,16.5-21.7,24.4c-4.3,4.5-8.7,9.1-13.1,13.6
			c-0.4,0.4-0.9,0.8-1.3,1.2c-0.4,0.4-0.8,0.9-1.2,1.3c-5.4,5.4-10.9,10.9-16.3,16.3c-0.4,0.4-1.1,0.8-1.1,1.5
			c0.5-0.3,1.1-0.5,1.6-0.8c2.6-1.6,5.2-3.2,7.8-4.7c0.3-0.2,0.6-0.5,0.9-0.7c14.2-8.9,28.3-17.9,42.4-27
			c21.2-13.8,41.6-28.6,61.8-43.8c4.2-3.2,8.4-6.4,12.5-9.5c0.4-0.3,0.7-0.7,1.1-1c4.4-3.6,8.7-7.1,13.1-10.7
			c7.1-5.7,13.8-11.9,20.5-18c1.7-1.5,3.2-3.2,4.8-4.8c1.9-1.7,3.7-3.6,5.6-5.3c3.9-3.6,7.6-7.4,11.3-11.1
			c3.9-3.8,7.5-7.9,11.3-11.8c3.7-3.9,7.1-8,10.6-12.1c10.9-12.8,20.8-26.5,30.5-40.3c4.1-5.8,8.1-11.7,12.1-17.5
			c0.3-0.5,0.5-1.1,0.9-1.6c4.3-6.5,8.4-13,12.2-19.8c2-3.6,4-7.2,5.3-11.2C607.7,107.6,608.3,106.7,607.8,106.2z"/>
		<path fill="#959696" d="M381.5,21.1c-0.1-1.4-0.5-1.7-1.7-0.9c-1.3,0.9-2.5,1.9-3.6,3c-5.2,5.1-10.3,10.4-15.6,15.4
			c-1.7,1.7-3.4,3.5-5.4,4.8c-2.8,2.6-5.7,5.1-8.8,7.3c-9.1,6.5-18.8,11.5-29.7,14.2c-9.5,2.3-18.6,0.9-27.5-2.6
			c-10.3-4.1-19.8-9.6-28.4-16.6c-5.8-4.7-11-10-16.1-15.4c-0.8-0.8-1.6-1.6-2.5-2.3c-2.4-2.2-4.7-4.5-7.1-6.7
			c-0.7-0.6-1.4-2-2.5-1.2c-1.1,0.7-0.5,2.1-0.3,3.2c0.9,4.2,2.7,8.1,4.6,11.9c0.4,0.7,0.7,1.5,1.1,2.2
			c7.4,11.7,16.1,22.2,26.5,31.4c7.7,6.8,16.5,11.9,26.2,15.2c4.5,1.5,9.1,2.5,13.6,3.6c0.2,0,0.4,0,0.6,0.1c0.4,0,0.9,0,1.3,0
			c0.9,0,1.7,0,2.6,0c0.4,0,0.9-0.1,1.3-0.1c0.2,0,0.4,0,0.6,0c1.1-0.3,2.3-0.6,3.4-0.8c8-1.9,15.4-5.5,22.5-9.5
			c10.2-5.8,18.8-13.6,26.5-22.5c3-3.5,5.5-7.4,8.2-11.1c0.2-0.4,0.4-0.8,0.6-1.1c3.6-5.9,6.8-12.1,9.1-18.6
			C381.4,23.1,381.6,22.1,381.5,21.1z"/>
		<path fill="#959696" d="M329,16.5c-5.9-9.5-17.4-14-28.2-11c-7.7,2.1-13.6,6.6-16.7,14.1c-1.4,3.4-1.7,6.9-1.5,10.5
			c0.8,6.4,3.9,11.4,8.9,15.3c10.3,8,25.2,6.9,34.3-2.3c2.3-2.4,3.9-5.2,5.3-8.1c0.2-0.7,0.3-1.5,0.5-2.2
			C332.7,27,332.1,21.5,329,16.5z"/>
		<path fill="#959696" d="M135.4,89.4c1.4,7.9,0.5,15.6-2.8,22.9c-4.6,10.1-12.2,17.2-22.6,21.1c-11.2,4.2-22.4,3.8-33.1-1.5
			c-12.5-6.2-20-16.3-22.2-30.2c-0.7-4.1-0.3-8.2,0.2-12.3c0.7-2.7,1.4-5.5,2.5-8c6.2-13.6,16.7-21.6,31.4-23.9
			c13.9-2.2,26,2,36,11.9c5.2,5.1,8.5,11.3,10.1,18.4C135.1,88.3,135.3,88.8,135.4,89.4z"/>
		<path fill="#B5DBDC" d="M401.3,293.7c0.1,0.2,0.3,0.3,0.4,0.5c-0.1,0.4-0.5,0.7-0.9,0.8c-0.1-0.1-0.2-0.2-0.3-0.3
			C400.8,294.3,401.1,294,401.3,293.7z"/>
		<path fill="#FD0C00" d="M419.6,154.7c-1.1-4.5-2.9-8.7-4.9-12.9c-2.5-4.2-5.3-8.2-8.7-11.9c-5.5-5.9-12.1-10.3-19.6-13.3
			c-10.2-3.4-20.5-5.2-31.3-3.9c-3.2,0.4-6.4,0.7-9.5,1.9c-0.6,0.1-1.2,0.2-1.7,0.4c-6,2-11.5,4.9-16.5,8.9
			c-6.6,5.2-12.4,11.2-18.6,16.8c-1.1,1-1.6,1.2-2.8,0.1c-4.7-4.5-9.6-8.8-14.7-12.8c-8-6.3-16.4-11.8-26.7-13.7
			c-8.9-1.6-17.9-2.8-26.8-0.5c-20.3,5.3-34.6,17.7-42.4,37.3c-1.5,4.7-2.4,9.5-2.8,14.5c-0.5,6.5-0.4,12.9,0,19.3
			c0.5,8.2,1.7,16.4,4.2,24.2c2,6.3,4.3,12.4,7.5,18.1c2.9,5.2,6.3,10.2,9.9,15c8.1,10.9,17.8,20.1,28.3,28.6
			c7.5,6,15.2,11.8,23.2,17c6.4,4.1,13.1,7.5,20.1,10.5c6.1,2.6,11.8,6.1,18.5,7.4c1.8,0.3,3.4,1.1,5.2,0.3c5.4-2.5,10.8-5,16.1-7.6
			c7-3.5,14-6.9,20.6-11c2.6-1.6,5.1-3.2,7.7-4.9c6.6-4.3,12.9-8.9,19.2-13.6c0.4-0.4,0.9-0.8,1.3-1.2
			c13.2-10.9,24.7-23.3,33.5-38.1c2.5-4.2,4.4-8.6,6.3-13c1.8-5.3,3.3-10.6,4.8-16C423.4,185.1,423.4,170,419.6,154.7z M399,222.7
			c-11.6,0.3-23.2,0.5-34.8,0.5c-5.8,0-11.6-0.1-17.4-0.2l0,0c-1.4-0.4-2.4-1.5-3.3-2.6c-3.6-4.3-10.1-4.8-14.4-1.2
			c-1.1,0.9-2.1,1.9-3.1,2.9c-1.7,1.7-3.6,2.6-6,3c-3.2,0.4-3.7,0.9-3.8,4.2c-0.1,6.2-1.1,12.2-2.5,18.2c-1,4.4-0.8,8.8-0.8,13.3
			c0,2.8,0.1,5.6,0,8.5c0,2.1-0.9,3.4-2,3.5c-1.2,0-2.1-1.3-2.3-3.3c-0.9-8.8-1.3-17.6-1.9-26.5c-1-14.9-1.6-29.9-3-44.8
			c-0.1-0.6,0-1.3-0.9-1.8c0,2.5,0,4.9,0,7.4c0,9,0,18-0.1,27c0,1.8-0.2,3.6-0.3,5.4c-0.1,1.7-1,2.1-2.6,1.4
			c-1.3-0.6-2.1-1.7-2.7-2.9c-0.7-1.6-1.4-3.2-2-4.8c-0.8-2.1-2.3-3.4-4.6-3.7c-3.1-0.3-5.1-2.1-6.7-4.6c-1.9-2.9-3.2-6-4.9-9
			c-0.5-1-0.9-2.4-2.2-2.4c-1.1,0-1.5,1.4-2,2.4c-1.7,3.1-3.4,6.3-4.9,9.5c-0.9,2-2.3,2.6-4.4,2.7c-6.1,0.2-12.3,0.2-18.4,0.1
			c-11.5-0.2-23-0.5-34.5-0.7c-0.3,0-0.5-0.1-0.8-0.1c0-0.1,0-0.3,0-0.4c4.9,0,9.9,0,14.8,0c13-0.1,25.9-0.3,38.9-0.7
			c1.4,0,2.1-0.5,2.7-1.7c1.7-3.5,3.5-7,5.3-10.4c0.6-1.1,1.3-2.1,2-3.1c1.2-1.5,1.8-1.5,2.8,0c0.9,1.3,1.7,2.8,2.5,4.2
			c1.5,2.7,3,5.4,4.8,7.9c1.4,2.1,3.3,3.3,5.9,3c3.1-0.3,4.9,1.6,6.7,3.6c0.5-0.4,0.3-1,0.4-1.4c0.4-10.6,0.7-21.2,1.2-31.7
			c0.5-10.9,0.8-21.9,2.2-32.8c0.1-0.7,0.1-1.9,0.7-2c0.9-0.1,0.9,1.2,1.1,1.9c1.2,4.6,1.6,9.4,2.1,14.1c2.2,23.1,3.3,46.2,4.3,69.4
			c0,0.1,0.1,0.3,0.2,0.8c1.4-4.6,2.6-8.9,2.7-13.3c0-2.1,0-4.1,0.3-6.2c0.2-1.5,1.1-2.3,2.5-2.7c0.4-0.1,0.8-0.3,1.3-0.3
			c3.7,0.1,6.5-1.7,9.1-4.1c3.5-3.2,7.6-4,12.1-3.1c2.1,0.4,3.9,1.2,5.2,3c0.6,0.8,1.2,1.7,2.2,2.1c1.5,1.2,3.3,0.9,5,1
			c10.1,0.3,20.2,0.6,30.2,0.8c6,0.1,12,0.2,18,0.3c3.2-0.2,6.3,0.1,9.5,0C405.5,222.4,402.3,222.9,399,222.7z"/>
		<path fill="#727272" d="M401.3,293.7c-0.3,0.3-0.5,0.6-0.8,0.9c-2.8,3.4-5.5,6.7-8.2,10.1c-0.7,0.9-1.5,1.3-2.8,1.3
			c-19,0-38,0.2-57,0.2c-0.6,0-1.2,0.2-2-0.4c1.6-0.6,3-1.2,4.5-1.6c10.4-3.4,20.8-6.6,31.2-10c6.2-2,12.4-4.4,18.2-7.4
			c5-2.7,10-5.4,15-8.1c0.6-0.4,1.5-0.4,2-1.1c0.4-0.1,0.8-0.3,1.1-0.6c1.5-0.9,3-1.7,4.6-2.6c4.2-1.9,7.8-4.7,11.6-7.3
			c0.5-0.3,0.9-0.7,1.5-0.8c0.2,0.7-0.3,1.1-0.6,1.5c-5.7,8.6-11.3,17.3-17.9,25.4C401.5,293.3,401.4,293.5,401.3,293.7z"/>
		<path fill="#727272" d="M193,265.9c0.9-0.1,1.5,0.6,2.1,1.1c13.3,8.7,27,16.5,41.6,22.8c9.5,4.1,19.4,6.9,29.2,10
			c4.9,1.6,9.9,3,14.7,4.8c0.6,0.2,1.2,0.3,1.7,0.9c-0.5,0.4-0.9,0.2-1.4,0.2c-19,0-38-0.1-57-0.1c-1.3,0-2.1-0.4-2.9-1.4
			c-9.9-11.7-19-23.9-27.2-36.9C193.5,266.8,193.3,266.3,193,265.9L193,265.9z"/>
		<path fill="#B4D3CF" d="M402.4,276.9c-0.3,0.3-0.6,0.6-1.1,0.6C401.5,276.9,401.9,276.9,402.4,276.9z"/>
		<path fill="#727272" d="M193,265.8c0,0-0.1,0-0.1-0.1c0,0,0-0.1,0-0.1C192.9,265.7,192.9,265.8,193,265.8
			C193,265.9,193,265.8,193,265.8z"/>
		<path fill="#FDFFDE" d="M399.3,222.4c-6-0.1-12-0.2-18-0.3c-10.1-0.2-20.2-0.5-30.2-0.8c-1.7-0.1-3.5,0.2-5-1
			c-1-0.4-1.6-1.3-2.2-2.1c-1.3-1.8-3.1-2.7-5.2-3c-4.5-0.8-8.6,0-12.1,3.1c-2.6,2.4-5.4,4.2-9.1,4.1c-0.4,0-0.9,0.1-1.3,0.3
			c-1.3,0.4-2.2,1.2-2.5,2.7c-0.3,2.1-0.2,4.1-0.3,6.2c-0.1,4.5-1.2,8.7-2.7,13.3c-0.1-0.6-0.2-0.7-0.2-0.8
			c-1-23.1-2.1-46.3-4.3-69.4c-0.5-4.7-0.9-9.5-2.1-14.1c-0.2-0.7-0.2-1.9-1.1-1.9c-0.6,0-0.6,1.2-0.7,2
			c-1.4,10.9-1.7,21.8-2.2,32.8c-0.5,10.6-0.8,21.1-1.2,31.7c0,0.4,0.2,1-0.4,1.4c-1.8-2.1-3.6-4-6.7-3.6c-2.6,0.3-4.5-0.9-5.9-3
			c-1.8-2.6-3.2-5.3-4.8-7.9c-0.8-1.4-1.6-2.8-2.5-4.2c-1.1-1.5-1.7-1.5-2.8,0c-0.8,1-1.5,2-2,3.1c-1.8,3.5-3.6,6.9-5.3,10.4
			c-0.6,1.2-1.4,1.7-2.7,1.7c-13,0.4-25.9,0.5-38.9,0.7c-4.9,0-9.9,0-14.8,0c0,0.1,0,0.3,0,0.4c0.3,0,0.5,0.1,0.8,0.1
			c11.5,0.3,23,0.5,34.5,0.7c6.1,0.1,12.3,0.1,18.4-0.1c2-0.1,3.4-0.7,4.4-2.7c1.5-3.2,3.2-6.4,4.9-9.5c0.5-0.9,0.9-2.3,2-2.4
			c1.3,0,1.6,1.4,2.2,2.4c1.7,3,3,6.1,4.9,9c1.6,2.5,3.6,4.2,6.7,4.6c2.2,0.3,3.7,1.5,4.6,3.7c0.6,1.6,1.3,3.2,2,4.8
			c0.6,1.3,1.4,2.3,2.7,2.9c1.5,0.7,2.4,0.2,2.6-1.4c0.2-1.8,0.3-3.6,0.3-5.4c0.1-9,0.1-18,0.1-27c0-2.5,0-4.9,0-7.4
			c0.9,0.5,0.8,1.2,0.9,1.8c1.4,14.9,2,29.9,3,44.8c0.6,8.8,1,17.7,1.9,26.5c0.2,2,1.2,3.3,2.3,3.3c1.1,0,2-1.4,2-3.5
			c0-2.8,0-5.6,0-8.5c0-4.5-0.2-8.9,0.8-13.3c1.4-6,2.3-12,2.5-18.2c0.1-3.2,0.6-3.7,3.8-4.2c2.4-0.3,4.3-1.3,6-3c1-1,2-2,3.1-2.9
			c4.3-3.6,10.8-3.1,14.4,1.2c0.9,1.1,1.8,2.1,3.3,2.6c5.8,0.1,11.6,0.1,17.4,0.2c11.6,0,23.2-0.3,34.8-0.5c3.2,0.2,6.5-0.3,9.7-0.3
			C405.6,222.4,402.4,222.2,399.3,222.4z"/>
	</g>
</g>
</svg>
